<?xml version="1.0" encoding="UTF-8" standalone="no"?>
<!-- Created with Inkscape (http://www.inkscape.org/) -->

<svg
   xmlns:dc="http://purl.org/dc/elements/1.1/"
   xmlns:cc="http://creativecommons.org/ns#"
   xmlns:rdf="http://www.w3.org/1999/02/22-rdf-syntax-ns#"
   xmlns:svg="http://www.w3.org/2000/svg"
   xmlns="http://www.w3.org/2000/svg"
   xmlns:sodipodi="http://sodipodi.sourceforge.net/DTD/sodipodi-0.dtd"
   xmlns:inkscape="http://www.inkscape.org/namespaces/inkscape"
   width="500"
   height="400"
   viewBox="0 0 500.00001 400.00001"
   id="svg2"
   version="1.1"
   inkscape:version="0.91 r13725"
   sodipodi:docname="test tube.svg">
  <defs
     id="defs4" />
  <sodipodi:namedview
     id="base"
     pagecolor="#ffffff"
     bordercolor="#666666"
     borderopacity="1.0"
     inkscape:pageopacity="0.0"
     inkscape:pageshadow="2"
     inkscape:zoom="0.37306202"
     inkscape:cx="381.55017"
     inkscape:cy="692.24973"
     inkscape:document-units="px"
     inkscape:current-layer="layer1"
     showgrid="false"
     units="px"
     inkscape:window-width="1366"
     inkscape:window-height="705"
     inkscape:window-x="-8"
     inkscape:window-y="-8"
     inkscape:window-maximized="1" />
  <metadata
     id="metadata7">
    <rdf:RDF>
      <cc:Work
         rdf:about="">
        <dc:format>image/svg+xml</dc:format>
        <dc:type
           rdf:resource="http://purl.org/dc/dcmitype/StillImage" />
        <dc:title></dc:title>
      </cc:Work>
    </rdf:RDF>
  </metadata>
  <g
     inkscape:label="Layer 1"
     inkscape:groupmode="layer"
     id="layer1"
     transform="translate(0,-652.36216)">
    <path
       style="fill:#eeefec;fill-opacity:1;fill-rule:evenodd;stroke:#000000;stroke-width:1.13573074;stroke-linecap:butt;stroke-linejoin:round;stroke-miterlimit:4;stroke-dasharray:none;stroke-opacity:1"
       d="m 46.012324,705.2737 c 0,0 2.547356,228.8896 3.950415,285.71056 0,0 11.148717,17.84734 37.528958,18.47554 26.380243,0.6281 38.845763,-19.35534 38.845763,-19.35534 l -0.32921,-282.63129 z"
       id="path4149"
       inkscape:connector-curvature="0"
       sodipodi:nodetypes="cszccc" />
    <path
       sodipodi:nodetypes="cszccc"
       inkscape:connector-curvature="0"
       id="path4151"
       d="m 47.302128,785.64423 c 0,0 2.015508,163.85192 3.373507,205.26149 0,0 10.790682,17.67508 36.323732,18.13288 25.533043,0.4578 38.723343,-19.08527 38.723343,-19.08527 L 125.36547,786.1468 c -25.34457,4.28298 -51.871833,4.00002 -78.063342,-0.50257 z"
       style="fill:#12c600;fill-opacity:1;fill-rule:evenodd;stroke:#000000;stroke-width:0.47692874px;stroke-linecap:butt;stroke-linejoin:round;stroke-opacity:1" />
    <path
       style="fill:#7fff00;fill-opacity:0.79503108;fill-rule:evenodd;stroke:none;stroke-width:1px;stroke-linecap:butt;stroke-linejoin:miter;stroke-opacity:1"
       d="m 55.531861,795.05459 c 0,0 4.616909,2.49434 7.319227,2.42078 2.327038,-0.0633 6.046319,-2.42078 6.046319,-2.42078 l 0,190.58092 c 0,0 -3.223826,6.14539 -7.001001,6.16196 -4.22434,0.0185 -7.955682,-6.82217 -7.955682,-6.82217 z"
       id="path4153"
       inkscape:connector-curvature="0"
       sodipodi:nodetypes="caccacc" />
    <path
       sodipodi:nodetypes="cszccc"
       inkscape:connector-curvature="0"
       id="path4155"
       d="m 155.91362,707.95422 c 0,0 2.54736,228.8896 3.95042,285.71056 0,0 11.14872,17.84732 37.52896,18.47552 26.38024,0.6281 38.84576,-19.35532 38.84576,-19.35532 l -0.32921,-282.6313 z"
       style="fill:#eeefec;fill-opacity:1;fill-rule:evenodd;stroke:#000000;stroke-width:1.13573074;stroke-linecap:butt;stroke-linejoin:round;stroke-miterlimit:4;stroke-dasharray:none;stroke-opacity:1" />
    <path
       style="fill:#ffff00;fill-opacity:1;fill-rule:evenodd;stroke:#000000;stroke-width:0.47692874px;stroke-linecap:butt;stroke-linejoin:round;stroke-opacity:1"
       d="m 157.20343,788.32475 c 0,0 2.01551,163.85192 3.37351,205.26149 0,0 10.79068,17.67506 36.32373,18.13286 25.53304,0.4578 38.72334,-19.08525 38.72334,-19.08525 l -0.35724,-203.80653 c -25.34457,4.28298 -51.87183,4.00002 -78.06334,-0.50257 z"
       id="path4157"
       inkscape:connector-curvature="0"
       sodipodi:nodetypes="cszccc" />
    <path
       sodipodi:nodetypes="sasas"
       inkscape:connector-curvature="0"
       id="path4159"
       d="m 156.04546,707.83638 c 0.39464,13.51052 22.2933,19.27256 36.01777,20.10482 15.64954,0.94901 41.92398,-3.49754 43.53905,-17.79408 1.60836,-14.23719 -23.38683,-20.01382 -37.70067,-20.64508 -15.21707,-0.6711 -42.30088,3.10898 -41.85615,18.33434 z"
       style="fill:#eeefec;fill-opacity:1;fill-rule:evenodd;stroke:#000000;stroke-width:1.39619315;stroke-linecap:butt;stroke-linejoin:round;stroke-miterlimit:4;stroke-dasharray:none;stroke-opacity:1" />
    <path
       sodipodi:nodetypes="caccacc"
       inkscape:connector-curvature="0"
       id="path4161"
       d="m 165.43316,797.73511 c 0,0 4.61691,2.49434 7.31923,2.42078 2.32704,-0.0633 6.04632,-2.42078 6.04632,-2.42078 l 0,190.58092 c 0,0 -3.22383,6.14539 -7.001,6.16196 -4.22434,0.0185 -7.95569,-6.82217 -7.95569,-6.82217 z"
       style="fill:#ffd700;fill-opacity:0.79503108;fill-rule:evenodd;stroke:none;stroke-width:1px;stroke-linecap:butt;stroke-linejoin:miter;stroke-opacity:1" />
    <path
       style="fill:#eeefec;fill-opacity:1;fill-rule:evenodd;stroke:#000000;stroke-width:1.13573074;stroke-linecap:butt;stroke-linejoin:round;stroke-miterlimit:4;stroke-dasharray:none;stroke-opacity:1"
       d="m 273.85648,707.95422 c 0,0 2.54736,228.8896 3.95042,285.71056 0,0 11.14872,17.84732 37.52896,18.47552 26.38024,0.6281 38.84576,-19.35532 38.84576,-19.35532 l -0.32921,-282.6313 z"
       id="path4163"
       inkscape:connector-curvature="0"
       sodipodi:nodetypes="cszccc" />
    <path
       sodipodi:nodetypes="cszccc"
       inkscape:connector-curvature="0"
       id="path4165"
       d="m 275.14629,788.32475 c 0,0 2.01551,163.85192 3.37351,205.26149 0,0 10.79068,17.67506 36.32373,18.13286 25.53304,0.4578 38.72334,-19.08525 38.72334,-19.08525 l -0.35724,-203.80653 c -25.34457,4.28298 -51.87183,4.00002 -78.06334,-0.50257 z"
       style="fill:#00bfff;fill-opacity:1;fill-rule:evenodd;stroke:#000000;stroke-width:0.47692874px;stroke-linecap:butt;stroke-linejoin:round;stroke-opacity:1" />
    <path
       style="fill:#00ffff;fill-opacity:0.79503108;fill-rule:evenodd;stroke:none;stroke-width:1px;stroke-linecap:butt;stroke-linejoin:miter;stroke-opacity:1"
       d="m 283.37602,797.73511 c 0,0 4.61691,2.49434 7.31923,2.42078 2.32704,-0.0633 6.04632,-2.42078 6.04632,-2.42078 l 0,190.58092 c 0,0 -3.22383,6.14539 -7.001,6.16196 -4.22434,0.0185 -7.95569,-6.82217 -7.95569,-6.82217 z"
       id="path4169"
       inkscape:connector-curvature="0"
       sodipodi:nodetypes="caccacc" />
    <path
       sodipodi:nodetypes="cszccc"
       inkscape:connector-curvature="0"
       id="path4171"
       d="m 381.07726,707.95422 c 0,0 2.54736,228.8896 3.95042,285.71056 0,0 11.14872,17.84732 37.52896,18.47552 26.38024,0.6281 38.84576,-19.35532 38.84576,-19.35532 l -0.32921,-282.6313 z"
       style="fill:#eeefec;fill-opacity:1;fill-rule:evenodd;stroke:#000000;stroke-width:1.13573074;stroke-linecap:butt;stroke-linejoin:round;stroke-miterlimit:4;stroke-dasharray:none;stroke-opacity:1" />
    <path
       style="fill:#ff00ff;fill-opacity:1;fill-rule:evenodd;stroke:#000000;stroke-width:0.47692874px;stroke-linecap:butt;stroke-linejoin:round;stroke-opacity:1"
       d="m 382.36707,788.32475 c 0,0 2.01551,163.85192 3.37351,205.26149 0,0 10.79068,17.67506 36.32373,18.13286 25.53304,0.4578 38.72334,-19.08525 38.72334,-19.08525 l -0.35724,-203.80653 c -25.34457,4.28298 -51.87183,4.00002 -78.06334,-0.50257 z"
       id="path4173"
       inkscape:connector-curvature="0"
       sodipodi:nodetypes="cszccc" />
    <path
       sodipodi:nodetypes="caccacc"
       inkscape:connector-curvature="0"
       id="path4177"
       d="m 390.5968,797.73511 c 0,0 4.61691,2.49434 7.31923,2.42078 2.32704,-0.0633 6.04632,-2.42078 6.04632,-2.42078 l 0,190.58092 c 0,0 -3.22383,6.14539 -7.001,6.16196 -4.22434,0.0185 -7.95569,-6.82217 -7.95569,-6.82217 z"
       style="fill:#ee82ee;fill-opacity:0.79503108;fill-rule:evenodd;stroke:none;stroke-width:1px;stroke-linecap:butt;stroke-linejoin:miter;stroke-opacity:1" />
    <path
       style="fill:#eeefec;fill-opacity:1;fill-rule:evenodd;stroke:#000000;stroke-width:1.39619315;stroke-linecap:butt;stroke-linejoin:round;stroke-miterlimit:4;stroke-dasharray:none;stroke-opacity:1"
       d="m 274.02897,710.0837 c 0.39464,13.51052 21.82206,19.14315 35.30699,19.86789 16.02624,0.86134 42.63476,-4.68217 44.24983,-18.97871 1.60836,-14.23719 -24.0618,-19.13784 -38.41145,-19.46045 -15.04366,-0.33821 -41.5901,3.34591 -41.14537,18.57127 z"
       id="path4190"
       inkscape:connector-curvature="0"
       sodipodi:nodetypes="sasas" />
    <path
       sodipodi:nodetypes="sasas"
       inkscape:connector-curvature="0"
       id="path4192"
       d="m 381.35434,708.50651 c 0.39464,13.51052 23.1225,19.43563 37.2024,20.10482 15.39956,0.73192 40.97627,-3.73446 42.59134,-18.03101 1.60836,-14.23719 -22.75899,-19.67847 -36.75296,-20.40815 -15.57321,-0.81203 -43.48551,3.10898 -43.04078,18.33434 z"
       style="fill:#eeefec;fill-opacity:1;fill-rule:evenodd;stroke:#000000;stroke-width:1.39619315;stroke-linecap:butt;stroke-linejoin:round;stroke-miterlimit:4;stroke-dasharray:none;stroke-opacity:1" />
    <path
       sodipodi:nodetypes="sasas"
       inkscape:connector-curvature="0"
       id="path4194"
       d="m 45.868564,705.58209 c 0.39464,13.51052 21.832031,18.97684 35.306992,19.8679 15.936354,1.05382 42.871694,-3.49754 44.486764,-17.79409 1.60836,-14.23719 -24.05087,-20.15857 -38.648384,-20.64508 -15.039107,-0.50123 -41.590102,3.34591 -41.145372,18.57127 z"
       style="fill:#eeefec;fill-opacity:1;fill-rule:evenodd;stroke:#000000;stroke-width:1.39619315;stroke-linecap:butt;stroke-linejoin:round;stroke-miterlimit:4;stroke-dasharray:none;stroke-opacity:1" />
  </g>
</svg>
